<?xml version="1.0" encoding="utf-8"?>
<!-- Generator: Adobe Illustrator 25.0.0, SVG Export Plug-In . SVG Version: 6.00 Build 0)  -->
<svg version="1.1" id="Layer_1" xmlns="http://www.w3.org/2000/svg" xmlns:xlink="http://www.w3.org/1999/xlink" x="0px" y="0px"
	 viewBox="0 0 32 32" style="enable-background:new 0 0 32 32;" xml:space="preserve">
<style type="text/css">
	.st0{fill-rule:evenodd;clip-rule:evenodd;fill:#848C94;}
</style>
<g>
	<path class="st0" d="M12,10.2h12v1.5H12V10.2z"/>
	<path class="st0" d="M9,10c0.6,0,1,0.4,1,1s-0.4,1-1,1s-1-0.4-1-1S8.4,10,9,10z"/>
	<path class="st0" d="M12,15.2h12v1.5H12V15.2z"/>
	<path class="st0" d="M9,15c0.6,0,1,0.4,1,1s-0.4,1-1,1s-1-0.4-1-1S8.4,15,9,15z"/>
	<path class="st0" d="M12,20.2h12v1.5H12V20.2z"/>
	<path class="st0" d="M9,20c0.6,0,1,0.4,1,1s-0.4,1-1,1s-1-0.4-1-1S8.4,20,9,20z"/>
</g>
</svg>
